<?xml version="1.0" encoding="UTF-8" standalone="no"?>
<!DOCTYPE svg PUBLIC "-//W3C//DTD SVG 1.1//EN" "http://www.w3.org/Graphics/SVG/1.1/DTD/svg11.dtd">
<svg width="100%" height="100%" viewBox="0 0 804 804" version="1.1" xmlns="http://www.w3.org/2000/svg" xmlns:xlink="http://www.w3.org/1999/xlink" xml:space="preserve" xmlns:serif="http://www.serif.com/" style="fill-rule:evenodd;clip-rule:evenodd;stroke-linejoin:round;stroke-miterlimit:2;">
    <g transform="matrix(1,0,0,1,-3474.78,0)">
        <g id="Page-2" serif:id="Page 2" transform="matrix(145.023,0,0,145.023,3474.78,0)">
            <rect x="0" y="0" width="5.542" height="5.542" style="fill:none;"/>
            <g id="Layer-1" serif:id="Layer 1">
            </g>
            <g transform="matrix(0.028731,0,0,0.028731,0.542933,2.36493)">
                <path d="M0,26.169C-7.307,26.169 -12.707,20.41 -12.707,12.815C-12.707,5.112 -7.307,0 0,0L14.182,0L14.182,4.572L0,4.572C-4.68,4.572 -8.135,8.063 -8.135,13.031C-8.135,17.962 -4.715,21.598 0,21.598L14.182,21.598L14.182,26.169L0,26.169Z" style="fill:white;fill-rule:nonzero;"/>
            </g>
            <g transform="matrix(0.028731,0,0,0.028731,1.7551,2.36493)">
                <path d="M0,26.169L-6.623,18.898L-16.413,18.898L-16.413,14.866L-5.507,14.866C-2.231,14.866 -0.504,12.995 -0.504,9.611C-0.504,6.228 -2.375,4.572 -5.507,4.572L-19.761,4.572L-19.761,26.169L-24.297,26.169L-24.297,0L-5.507,0C0.469,0 3.996,3.708 3.996,9.539C3.996,13.858 1.98,16.918 -1.403,18.214L6.479,26.169L0,26.169Z" style="fill:white;fill-rule:nonzero;"/>
            </g>
            <g transform="matrix(0.028731,0,0,0.028731,2.26507,2.36493)">
                <path d="M0,26.169L0,16.234L-13.895,0L-7.739,0L2.448,12.059L12.671,0L18.502,0L4.571,16.234L4.571,26.169L0,26.169Z" style="fill:white;fill-rule:nonzero;"/>
            </g>
            <g transform="matrix(0.028731,0,0,0.028731,3.10186,2.57383)">
                <path d="M0,11.627L0,7.199L10.511,7.199C13.714,7.199 15.622,5.184 15.622,2.232C15.622,-0.791 13.714,-2.699 10.511,-2.699L-3.348,-2.699L-3.348,18.898L-7.884,18.898L-7.884,-7.271L10.511,-7.271C16.558,-7.271 20.085,-3.635 20.085,2.088C20.085,7.739 16.558,11.627 10.511,11.627L0,11.627Z" style="fill:white;fill-rule:nonzero;"/>
            </g>
            <g transform="matrix(0.028731,0,0,0.028731,4.01306,2.36493)">
                <path d="M0,26.169L0,4.572L-9.935,4.572L-9.935,0L14.506,0L14.506,4.572L4.571,4.572L4.571,26.169L0,26.169Z" style="fill:white;fill-rule:nonzero;"/>
            </g>
            <g transform="matrix(0.028731,0,0,0.028731,5.15902,2.35459)">
                <path d="M0,26.529L-3.924,19.942L-16.307,19.942L-14.146,16.234L-6.119,16.234L-11.951,6.444L-23.829,26.529L-29.049,26.529L-14.003,1.476C-13.463,0.576 -12.778,0 -11.771,0C-10.763,0 -10.115,0.576 -9.575,1.476L5.507,26.529L0,26.529Z" style="fill:white;fill-rule:nonzero;"/>
            </g>
        </g>
    </g>
</svg>
